<?xml version="1.0" standalone="no"?>
<!DOCTYPE svg PUBLIC "-//W3C//DTD SVG 20010904//EN"
 "http://www.w3.org/TR/2001/REC-SVG-20010904/DTD/svg10.dtd">
<svg version="1.0" xmlns="http://www.w3.org/2000/svg"
 width="1052.000000pt" height="846.000000pt" viewBox="0 0 1052.000000 846.000000"
 preserveAspectRatio="xMidYMid meet">

<g transform="translate(0.000000,846.000000) scale(0.100000,-0.100000)"
fill="#000000" stroke="none">
<path d="M7 8443 c-4 -3 -7 -1596 -7 -3539 0 -3384 1 -3534 18 -3543 17 -9
492 -5 519 4 10 3 13 702 15 3274 3 3007 4 3272 19 3287 15 15 346 16 4180 17
l4164 2 0 250 0 250 -4451 3 c-2448 1 -4454 -1 -4457 -5z"/>
<path d="M9990 7025 c-12 -14 -14 -479 -11 -3260 3 -3140 2 -3242 -16 -3250
-10 -5 -1913 -9 -4228 -10 -2316 -1 -4216 -5 -4223 -9 -17 -10 -17 -467 0
-484 9 -9 1021 -12 4493 -12 4329 0 4482 1 4498 18 16 17 17 275 17 3504 0
3219 -1 3487 -16 3499 -13 11 -74 15 -258 17 -218 4 -243 2 -256 -13z"/>
<path d="M7465 5850 l-130 -5 -5 -1135 c-3 -624 -6 -1136 -8 -1137 -9 -9 -42
23 -115 110 -46 56 -139 167 -206 247 -68 80 -176 208 -240 285 -65 77 -189
223 -275 325 -87 102 -208 245 -269 319 -111 133 -295 351 -412 487 -33 39
-120 143 -193 232 -165 200 -192 228 -203 210 -5 -7 -9 -268 -9 -579 0 -436
-3 -569 -12 -582 -12 -14 -45 -17 -280 -19 -146 -2 -269 -5 -272 -8 -3 -3 -7
-383 -10 -845 -4 -805 -5 -842 -24 -897 -11 -31 -26 -67 -32 -80 -36 -68 -139
-141 -255 -178 -38 -13 -76 -30 -82 -38 -19 -23 -17 -117 3 -136 14 -14 76
-16 533 -16 412 0 521 3 529 13 8 9 12 339 14 1077 2 701 6 1067 13 1072 10 7
131 -117 227 -233 29 -35 109 -130 178 -210 69 -81 166 -195 217 -255 50 -60
102 -120 115 -134 13 -14 46 -52 73 -85 28 -32 172 -201 320 -375 149 -174
313 -367 365 -429 205 -244 354 -417 369 -428 20 -15 598 -18 621 -3 13 8 16
187 20 1482 l5 1473 30 60 c68 135 193 218 374 249 52 8 99 20 104 25 11 11
14 121 4 139 -6 9 -112 12 -480 10 -260 -1 -530 -5 -602 -8z"/>
<path d="M2798 5842 l-868 -2 -5 -23 c-3 -12 -4 -231 -3 -487 l3 -465 57 -3
c47 -2 61 1 78 18 11 11 20 32 20 46 0 30 47 128 92 190 34 48 112 112 168
138 93 43 141 47 517 49 199 1 366 -2 370 -7 4 -4 8 -557 8 -1229 l0 -1222
-23 -43 c-62 -116 -175 -192 -323 -216 -21 -4 -41 -12 -47 -19 -16 -20 -24
-102 -13 -131 l11 -26 705 2 c614 3 707 5 715 18 5 8 10 39 10 68 0 55 -22 92
-56 92 -8 0 -48 14 -89 31 -81 33 -134 79 -166 141 -49 95 -49 93 -49 1343 0
644 4 1176 9 1183 6 10 88 13 382 14 339 2 379 0 429 -17 141 -47 227 -150
260 -313 16 -78 29 -92 85 -92 77 0 75 -13 76 373 2 486 0 560 -16 575 -14 15
-693 19 -2337 14z"/>
</g>
</svg>
